solid cube
  facet normal 30.0 30.0 -6.0
    outer loop
      vertex 3.0 0.0 0
      vertex 0.0 3.0 0
      vertex 5.0 0.0 10
    endloop
  endfacet
  facet normal -30.0 30.0 -6.0
    outer loop
      vertex 0.0 3.0 0
      vertex -3.0 0.0 0
      vertex 0.0 5.0 10
    endloop
  endfacet
  facet normal -30.0 -30.0 -6.0
    outer loop
      vertex -3.0 0.0 0
      vertex -0.0 -3.0 0
      vertex -5.0 0.0 10
    endloop
  endfacet
  facet normal 30.0 -30.0 -6.0
    outer loop
      vertex -0.0 -3.0 0
      vertex 3.0 0.0 0
      vertex -0.0 -5.0 10
    endloop
  endfacet
  facet normal 50.0 50.0 -10.0
    outer loop
      vertex 0.0 3.0 0
      vertex 0.0 5.0 10
      vertex 5.0 0.0 10
    endloop
  endfacet
  facet normal -50.0 50.0 -10.0
    outer loop
      vertex -3.0 0.0 0
      vertex -5.0 0.0 10
      vertex 0.0 5.0 10
    endloop
  endfacet
  facet normal -50.0 -50.0 -10.0
    outer loop
      vertex -0.0 -3.0 0
      vertex -0.0 -5.0 10
      vertex -5.0 0.0 10
    endloop
  endfacet
  facet normal 50.0 -50.0 -10.0
    outer loop
      vertex 3.0 0.0 0
      vertex 5.0 0.0 10
      vertex -0.0 -5.0 10
    endloop
  endfacet
  facet normal 0.0 0.0 -18.0
    outer loop
      vertex 0.0 -3.0 0
      vertex -3.0 0.0 0
      vertex 0.0 3.0 0
    endloop
  endfacet
  facet normal 0.0 0.0 -18.0
    outer loop
      vertex -0.0 3.0 0
      vertex 3.0 0.0 0
      vertex -0.0 -3.0 0
    endloop
  endfacet
  facet normal 0.0 0.0 50.0
    outer loop
      vertex 0.0 5.0 10
      vertex -5.0 0.0 10
      vertex 0.0 -5.0 10
    endloop
  endfacet
  facet normal 0.0 0.0 50.0
    outer loop
      vertex -0.0 -5.0 10
      vertex 5.0 0.0 10
      vertex -0.0 5.0 10
    endloop
  endfacet
endsolid cube