solid OpenSCAD_Model
  facet normal 0.994522 0.104526 0
    outer loop
      vertex 1 0 1
      vertex 0.978148 0.207912 0
      vertex 0.978148 0.207912 1
    endloop
  endfacet
  facet normal 0.994522 0.104526 0
    outer loop
      vertex 0.978148 0.207912 0
      vertex 1 0 1
      vertex 1 0 0
    endloop
  endfacet
  facet normal 0.951055 0.309021 0
    outer loop
      vertex 0.978148 0.207912 1
      vertex 0.913545 0.406737 0
      vertex 0.913545 0.406737 1
    endloop
  endfacet
  facet normal 0.951055 0.309021 0
    outer loop
      vertex 0.913545 0.406737 0
      vertex 0.978148 0.207912 1
      vertex 0.978148 0.207912 0
    endloop
  endfacet
  facet normal 0.866026 0.5 0
    outer loop
      vertex 0.913545 0.406737 1
      vertex 0.809017 0.587785 0
      vertex 0.809017 0.587785 1
    endloop
  endfacet
  facet normal 0.866026 0.5 0
    outer loop
      vertex 0.809017 0.587785 0
      vertex 0.913545 0.406737 1
      vertex 0.913545 0.406737 0
    endloop
  endfacet
  facet normal 0.743147 0.669129 0
    outer loop
      vertex 0.809017 0.587785 1
      vertex 0.669131 0.743145 0
      vertex 0.669131 0.743145 1
    endloop
  endfacet
  facet normal 0.743147 0.669129 0
    outer loop
      vertex 0.669131 0.743145 0
      vertex 0.809017 0.587785 1
      vertex 0.809017 0.587785 0
    endloop
  endfacet
  facet normal 0.587783 0.809019 -0
    outer loop
      vertex 0.669131 0.743145 0
      vertex 0.5 0.866025 1
      vertex 0.669131 0.743145 1
    endloop
  endfacet
  facet normal 0.587783 0.809019 0
    outer loop
      vertex 0.5 0.866025 1
      vertex 0.669131 0.743145 0
      vertex 0.5 0.866025 0
    endloop
  endfacet
  facet normal 0.40674 0.913544 -0
    outer loop
      vertex 0.5 0.866025 0
      vertex 0.309017 0.951057 1
      vertex 0.5 0.866025 1
    endloop
  endfacet
  facet normal 0.40674 0.913544 0
    outer loop
      vertex 0.309017 0.951057 1
      vertex 0.5 0.866025 0
      vertex 0.309017 0.951057 0
    endloop
  endfacet
  facet normal 0.207909 0.978148 -0
    outer loop
      vertex 0.309017 0.951057 0
      vertex 0.104528 0.994522 1
      vertex 0.309017 0.951057 1
    endloop
  endfacet
  facet normal 0.207909 0.978148 0
    outer loop
      vertex 0.104528 0.994522 1
      vertex 0.309017 0.951057 0
      vertex 0.104528 0.994522 0
    endloop
  endfacet
  facet normal 0 1 -0
    outer loop
      vertex 0.104528 0.994522 0
      vertex -0.104528 0.994522 1
      vertex 0.104528 0.994522 1
    endloop
  endfacet
  facet normal 0 1 0
    outer loop
      vertex -0.104528 0.994522 1
      vertex 0.104528 0.994522 0
      vertex -0.104528 0.994522 0
    endloop
  endfacet
  facet normal -0.207909 0.978148 0
    outer loop
      vertex -0.104528 0.994522 0
      vertex -0.309017 0.951057 1
      vertex -0.104528 0.994522 1
    endloop
  endfacet
  facet normal -0.207909 0.978148 0
    outer loop
      vertex -0.309017 0.951057 1
      vertex -0.104528 0.994522 0
      vertex -0.309017 0.951057 0
    endloop
  endfacet
  facet normal -0.40674 0.913544 0
    outer loop
      vertex -0.309017 0.951057 0
      vertex -0.5 0.866025 1
      vertex -0.309017 0.951057 1
    endloop
  endfacet
  facet normal -0.40674 0.913544 0
    outer loop
      vertex -0.5 0.866025 1
      vertex -0.309017 0.951057 0
      vertex -0.5 0.866025 0
    endloop
  endfacet
  facet normal -0.587783 0.809019 0
    outer loop
      vertex -0.5 0.866025 0
      vertex -0.669131 0.743145 1
      vertex -0.5 0.866025 1
    endloop
  endfacet
  facet normal -0.587783 0.809019 0
    outer loop
      vertex -0.669131 0.743145 1
      vertex -0.5 0.866025 0
      vertex -0.669131 0.743145 0
    endloop
  endfacet
  facet normal -0.743147 0.669129 0
    outer loop
      vertex -0.809017 0.587785 0
      vertex -0.669131 0.743145 1
      vertex -0.669131 0.743145 0
    endloop
  endfacet
  facet normal -0.743147 0.669129 0
    outer loop
      vertex -0.669131 0.743145 1
      vertex -0.809017 0.587785 0
      vertex -0.809017 0.587785 1
    endloop
  endfacet
  facet normal -0.866026 0.5 0
    outer loop
      vertex -0.913545 0.406737 0
      vertex -0.809017 0.587785 1
      vertex -0.809017 0.587785 0
    endloop
  endfacet
  facet normal -0.866026 0.5 0
    outer loop
      vertex -0.809017 0.587785 1
      vertex -0.913545 0.406737 0
      vertex -0.913545 0.406737 1
    endloop
  endfacet
  facet normal -0.951055 0.309021 0
    outer loop
      vertex -0.978148 0.207912 0
      vertex -0.913545 0.406737 1
      vertex -0.913545 0.406737 0
    endloop
  endfacet
  facet normal -0.951055 0.309021 0
    outer loop
      vertex -0.913545 0.406737 1
      vertex -0.978148 0.207912 0
      vertex -0.978148 0.207912 1
    endloop
  endfacet
  facet normal -0.994522 0.104526 0
    outer loop
      vertex -1 -0 0
      vertex -0.978148 0.207912 1
      vertex -0.978148 0.207912 0
    endloop
  endfacet
  facet normal -0.994522 0.104526 0
    outer loop
      vertex -0.978148 0.207912 1
      vertex -1 -0 0
      vertex -1 -0 1
    endloop
  endfacet
  facet normal -0.994522 -0.104526 0
    outer loop
      vertex -0.978148 -0.207912 0
      vertex -1 -0 1
      vertex -1 -0 0
    endloop
  endfacet
  facet normal -0.994522 -0.104526 0
    outer loop
      vertex -1 -0 1
      vertex -0.978148 -0.207912 0
      vertex -0.978148 -0.207912 1
    endloop
  endfacet
  facet normal -0.951055 -0.309021 0
    outer loop
      vertex -0.913545 -0.406737 0
      vertex -0.978148 -0.207912 1
      vertex -0.978148 -0.207912 0
    endloop
  endfacet
  facet normal -0.951055 -0.309021 0
    outer loop
      vertex -0.978148 -0.207912 1
      vertex -0.913545 -0.406737 0
      vertex -0.913545 -0.406737 1
    endloop
  endfacet
  facet normal -0.866026 -0.5 0
    outer loop
      vertex -0.809017 -0.587785 0
      vertex -0.913545 -0.406737 1
      vertex -0.913545 -0.406737 0
    endloop
  endfacet
  facet normal -0.866026 -0.5 0
    outer loop
      vertex -0.913545 -0.406737 1
      vertex -0.809017 -0.587785 0
      vertex -0.809017 -0.587785 1
    endloop
  endfacet
  facet normal -0.743147 -0.669129 0
    outer loop
      vertex -0.669131 -0.743145 0
      vertex -0.809017 -0.587785 1
      vertex -0.809017 -0.587785 0
    endloop
  endfacet
  facet normal -0.743147 -0.669129 0
    outer loop
      vertex -0.809017 -0.587785 1
      vertex -0.669131 -0.743145 0
      vertex -0.669131 -0.743145 1
    endloop
  endfacet
  facet normal -0.587783 -0.809019 0
    outer loop
      vertex -0.669131 -0.743145 0
      vertex -0.5 -0.866025 1
      vertex -0.669131 -0.743145 1
    endloop
  endfacet
  facet normal -0.587783 -0.809019 -0
    outer loop
      vertex -0.5 -0.866025 1
      vertex -0.669131 -0.743145 0
      vertex -0.5 -0.866025 0
    endloop
  endfacet
  facet normal -0.40674 -0.913544 0
    outer loop
      vertex -0.5 -0.866025 0
      vertex -0.309017 -0.951057 1
      vertex -0.5 -0.866025 1
    endloop
  endfacet
  facet normal -0.40674 -0.913544 -0
    outer loop
      vertex -0.309017 -0.951057 1
      vertex -0.5 -0.866025 0
      vertex -0.309017 -0.951057 0
    endloop
  endfacet
  facet normal -0.207909 -0.978148 0
    outer loop
      vertex -0.309017 -0.951057 0
      vertex -0.104528 -0.994522 1
      vertex -0.309017 -0.951057 1
    endloop
  endfacet
  facet normal -0.207909 -0.978148 -0
    outer loop
      vertex -0.104528 -0.994522 1
      vertex -0.309017 -0.951057 0
      vertex -0.104528 -0.994522 0
    endloop
  endfacet
  facet normal 0 -1 0
    outer loop
      vertex -0.104528 -0.994522 0
      vertex 0.104528 -0.994522 1
      vertex -0.104528 -0.994522 1
    endloop
  endfacet
  facet normal 0 -1 -0
    outer loop
      vertex 0.104528 -0.994522 1
      vertex -0.104528 -0.994522 0
      vertex 0.104528 -0.994522 0
    endloop
  endfacet
  facet normal 0.207909 -0.978148 0
    outer loop
      vertex 0.104528 -0.994522 0
      vertex 0.309017 -0.951057 1
      vertex 0.104528 -0.994522 1
    endloop
  endfacet
  facet normal 0.207909 -0.978148 0
    outer loop
      vertex 0.309017 -0.951057 1
      vertex 0.104528 -0.994522 0
      vertex 0.309017 -0.951057 0
    endloop
  endfacet
  facet normal 0.40674 -0.913544 0
    outer loop
      vertex 0.309017 -0.951057 0
      vertex 0.5 -0.866025 1
      vertex 0.309017 -0.951057 1
    endloop
  endfacet
  facet normal 0.40674 -0.913544 0
    outer loop
      vertex 0.5 -0.866025 1
      vertex 0.309017 -0.951057 0
      vertex 0.5 -0.866025 0
    endloop
  endfacet
  facet normal 0.587783 -0.809019 0
    outer loop
      vertex 0.5 -0.866025 0
      vertex 0.669131 -0.743145 1
      vertex 0.5 -0.866025 1
    endloop
  endfacet
  facet normal 0.587783 -0.809019 0
    outer loop
      vertex 0.669131 -0.743145 1
      vertex 0.5 -0.866025 0
      vertex 0.669131 -0.743145 0
    endloop
  endfacet
  facet normal 0.743147 -0.669129 0
    outer loop
      vertex 0.669131 -0.743145 1
      vertex 0.809017 -0.587785 0
      vertex 0.809017 -0.587785 1
    endloop
  endfacet
  facet normal 0.743147 -0.669129 0
    outer loop
      vertex 0.809017 -0.587785 0
      vertex 0.669131 -0.743145 1
      vertex 0.669131 -0.743145 0
    endloop
  endfacet
  facet normal 0.866026 -0.5 0
    outer loop
      vertex 0.809017 -0.587785 1
      vertex 0.913545 -0.406737 0
      vertex 0.913545 -0.406737 1
    endloop
  endfacet
  facet normal 0.866026 -0.5 0
    outer loop
      vertex 0.913545 -0.406737 0
      vertex 0.809017 -0.587785 1
      vertex 0.809017 -0.587785 0
    endloop
  endfacet
  facet normal 0.951055 -0.309021 0
    outer loop
      vertex 0.913545 -0.406737 1
      vertex 0.978148 -0.207912 0
      vertex 0.978148 -0.207912 1
    endloop
  endfacet
  facet normal 0.951055 -0.309021 0
    outer loop
      vertex 0.978148 -0.207912 0
      vertex 0.913545 -0.406737 1
      vertex 0.913545 -0.406737 0
    endloop
  endfacet
  facet normal 0.994522 -0.104526 0
    outer loop
      vertex 0.978148 -0.207912 1
      vertex 1 0 0
      vertex 1 0 1
    endloop
  endfacet
  facet normal 0.994522 -0.104526 0
    outer loop
      vertex 1 0 0
      vertex 0.978148 -0.207912 1
      vertex 0.978148 -0.207912 0
    endloop
  endfacet
  facet normal 0 0 -1
    outer loop
      vertex 0.978148 -0.207912 0
      vertex 0.978148 0.207912 0
      vertex 1 0 0
    endloop
  endfacet
  facet normal 0 0 -1
    outer loop
      vertex 0.913545 -0.406737 0
      vertex 0.978148 0.207912 0
      vertex 0.978148 -0.207912 0
    endloop
  endfacet
  facet normal 0 0 -1
    outer loop
      vertex 0.913545 -0.406737 0
      vertex 0.913545 0.406737 0
      vertex 0.978148 0.207912 0
    endloop
  endfacet
  facet normal 0 0 -1
    outer loop
      vertex 0.809017 -0.587785 0
      vertex 0.913545 0.406737 0
      vertex 0.913545 -0.406737 0
    endloop
  endfacet
  facet normal 0 0 -1
    outer loop
      vertex 0.809017 -0.587785 0
      vertex 0.809017 0.587785 0
      vertex 0.913545 0.406737 0
    endloop
  endfacet
  facet normal 0 0 -1
    outer loop
      vertex 0.669131 -0.743145 0
      vertex 0.809017 0.587785 0
      vertex 0.809017 -0.587785 0
    endloop
  endfacet
  facet normal 0 0 -1
    outer loop
      vertex 0.669131 -0.743145 0
      vertex 0.669131 0.743145 0
      vertex 0.809017 0.587785 0
    endloop
  endfacet
  facet normal 0 0 -1
    outer loop
      vertex 0.5 -0.866025 0
      vertex 0.669131 0.743145 0
      vertex 0.669131 -0.743145 0
    endloop
  endfacet
  facet normal 0 0 -1
    outer loop
      vertex 0.5 -0.866025 0
      vertex 0.5 0.866025 0
      vertex 0.669131 0.743145 0
    endloop
  endfacet
  facet normal 0 0 -1
    outer loop
      vertex 0.309017 -0.951057 0
      vertex 0.5 0.866025 0
      vertex 0.5 -0.866025 0
    endloop
  endfacet
  facet normal 0 0 -1
    outer loop
      vertex 0.309017 -0.951057 0
      vertex 0.309017 0.951057 0
      vertex 0.5 0.866025 0
    endloop
  endfacet
  facet normal 0 0 -1
    outer loop
      vertex 0.104528 -0.994522 0
      vertex 0.309017 0.951057 0
      vertex 0.309017 -0.951057 0
    endloop
  endfacet
  facet normal 0 0 -1
    outer loop
      vertex 0.104528 -0.994522 0
      vertex 0.104528 0.994522 0
      vertex 0.309017 0.951057 0
    endloop
  endfacet
  facet normal 0 0 -1
    outer loop
      vertex -0.104528 -0.994522 0
      vertex 0.104528 0.994522 0
      vertex 0.104528 -0.994522 0
    endloop
  endfacet
  facet normal 0 0 -1
    outer loop
      vertex -0.104528 -0.994522 0
      vertex -0.104528 0.994522 0
      vertex 0.104528 0.994522 0
    endloop
  endfacet
  facet normal 0 0 -1
    outer loop
      vertex -0.309017 -0.951057 0
      vertex -0.104528 0.994522 0
      vertex -0.104528 -0.994522 0
    endloop
  endfacet
  facet normal 0 0 -1
    outer loop
      vertex -0.309017 -0.951057 0
      vertex -0.309017 0.951057 0
      vertex -0.104528 0.994522 0
    endloop
  endfacet
  facet normal 0 0 -1
    outer loop
      vertex -0.5 -0.866025 0
      vertex -0.309017 0.951057 0
      vertex -0.309017 -0.951057 0
    endloop
  endfacet
  facet normal 0 0 -1
    outer loop
      vertex -0.5 -0.866025 0
      vertex -0.5 0.866025 0
      vertex -0.309017 0.951057 0
    endloop
  endfacet
  facet normal 0 0 -1
    outer loop
      vertex -0.669131 -0.743145 0
      vertex -0.5 0.866025 0
      vertex -0.5 -0.866025 0
    endloop
  endfacet
  facet normal 0 0 -1
    outer loop
      vertex -0.669131 -0.743145 0
      vertex -0.669131 0.743145 0
      vertex -0.5 0.866025 0
    endloop
  endfacet
  facet normal 0 0 -1
    outer loop
      vertex -0.809017 -0.587785 0
      vertex -0.669131 0.743145 0
      vertex -0.669131 -0.743145 0
    endloop
  endfacet
  facet normal 0 0 -1
    outer loop
      vertex -0.809017 -0.587785 0
      vertex -0.809017 0.587785 0
      vertex -0.669131 0.743145 0
    endloop
  endfacet
  facet normal 0 0 -1
    outer loop
      vertex -0.913545 -0.406737 0
      vertex -0.809017 0.587785 0
      vertex -0.809017 -0.587785 0
    endloop
  endfacet
  facet normal 0 0 -1
    outer loop
      vertex -0.913545 -0.406737 0
      vertex -0.913545 0.406737 0
      vertex -0.809017 0.587785 0
    endloop
  endfacet
  facet normal 0 0 -1
    outer loop
      vertex -0.978148 -0.207912 0
      vertex -0.913545 0.406737 0
      vertex -0.913545 -0.406737 0
    endloop
  endfacet
  facet normal 0 0 -1
    outer loop
      vertex -0.978148 -0.207912 0
      vertex -0.978148 0.207912 0
      vertex -0.913545 0.406737 0
    endloop
  endfacet
  facet normal 0 -0 -1
    outer loop
      vertex -0.978148 0.207912 0
      vertex -0.978148 -0.207912 0
      vertex -1 -0 0
    endloop
  endfacet
  facet normal 0 0 1
    outer loop
      vertex 0.978148 0.207912 1
      vertex 0.978148 -0.207912 1
      vertex 1 0 1
    endloop
  endfacet
  facet normal 0 0 1
    outer loop
      vertex 0.913545 0.406737 1
      vertex 0.978148 -0.207912 1
      vertex 0.978148 0.207912 1
    endloop
  endfacet
  facet normal 0 0 1
    outer loop
      vertex 0.913545 0.406737 1
      vertex 0.913545 -0.406737 1
      vertex 0.978148 -0.207912 1
    endloop
  endfacet
  facet normal 0 0 1
    outer loop
      vertex 0.809017 0.587785 1
      vertex 0.913545 -0.406737 1
      vertex 0.913545 0.406737 1
    endloop
  endfacet
  facet normal 0 0 1
    outer loop
      vertex 0.809017 0.587785 1
      vertex 0.809017 -0.587785 1
      vertex 0.913545 -0.406737 1
    endloop
  endfacet
  facet normal 0 0 1
    outer loop
      vertex 0.669131 0.743145 1
      vertex 0.809017 -0.587785 1
      vertex 0.809017 0.587785 1
    endloop
  endfacet
  facet normal 0 0 1
    outer loop
      vertex 0.669131 0.743145 1
      vertex 0.669131 -0.743145 1
      vertex 0.809017 -0.587785 1
    endloop
  endfacet
  facet normal 0 0 1
    outer loop
      vertex 0.5 0.866025 1
      vertex 0.669131 -0.743145 1
      vertex 0.669131 0.743145 1
    endloop
  endfacet
  facet normal 0 0 1
    outer loop
      vertex 0.5 0.866025 1
      vertex 0.5 -0.866025 1
      vertex 0.669131 -0.743145 1
    endloop
  endfacet
  facet normal 0 0 1
    outer loop
      vertex 0.309017 0.951057 1
      vertex 0.5 -0.866025 1
      vertex 0.5 0.866025 1
    endloop
  endfacet
  facet normal 0 0 1
    outer loop
      vertex 0.309017 0.951057 1
      vertex 0.309017 -0.951057 1
      vertex 0.5 -0.866025 1
    endloop
  endfacet
  facet normal 0 0 1
    outer loop
      vertex 0.104528 0.994522 1
      vertex 0.309017 -0.951057 1
      vertex 0.309017 0.951057 1
    endloop
  endfacet
  facet normal 0 0 1
    outer loop
      vertex 0.104528 0.994522 1
      vertex 0.104528 -0.994522 1
      vertex 0.309017 -0.951057 1
    endloop
  endfacet
  facet normal -0 0 1
    outer loop
      vertex -0.104528 0.994522 1
      vertex 0.104528 -0.994522 1
      vertex 0.104528 0.994522 1
    endloop
  endfacet
  facet normal 0 0 1
    outer loop
      vertex -0.104528 0.994522 1
      vertex -0.104528 -0.994522 1
      vertex 0.104528 -0.994522 1
    endloop
  endfacet
  facet normal -0 0 1
    outer loop
      vertex -0.309017 0.951057 1
      vertex -0.104528 -0.994522 1
      vertex -0.104528 0.994522 1
    endloop
  endfacet
  facet normal 0 0 1
    outer loop
      vertex -0.309017 0.951057 1
      vertex -0.309017 -0.951057 1
      vertex -0.104528 -0.994522 1
    endloop
  endfacet
  facet normal -0 0 1
    outer loop
      vertex -0.5 0.866025 1
      vertex -0.309017 -0.951057 1
      vertex -0.309017 0.951057 1
    endloop
  endfacet
  facet normal 0 0 1
    outer loop
      vertex -0.5 0.866025 1
      vertex -0.5 -0.866025 1
      vertex -0.309017 -0.951057 1
    endloop
  endfacet
  facet normal -0 0 1
    outer loop
      vertex -0.669131 0.743145 1
      vertex -0.5 -0.866025 1
      vertex -0.5 0.866025 1
    endloop
  endfacet
  facet normal 0 0 1
    outer loop
      vertex -0.669131 0.743145 1
      vertex -0.669131 -0.743145 1
      vertex -0.5 -0.866025 1
    endloop
  endfacet
  facet normal -0 0 1
    outer loop
      vertex -0.809017 0.587785 1
      vertex -0.669131 -0.743145 1
      vertex -0.669131 0.743145 1
    endloop
  endfacet
  facet normal 0 0 1
    outer loop
      vertex -0.809017 0.587785 1
      vertex -0.809017 -0.587785 1
      vertex -0.669131 -0.743145 1
    endloop
  endfacet
  facet normal -0 0 1
    outer loop
      vertex -0.913545 0.406737 1
      vertex -0.809017 -0.587785 1
      vertex -0.809017 0.587785 1
    endloop
  endfacet
  facet normal 0 0 1
    outer loop
      vertex -0.913545 0.406737 1
      vertex -0.913545 -0.406737 1
      vertex -0.809017 -0.587785 1
    endloop
  endfacet
  facet normal -0 0 1
    outer loop
      vertex -0.978148 0.207912 1
      vertex -0.913545 -0.406737 1
      vertex -0.913545 0.406737 1
    endloop
  endfacet
  facet normal 0 0 1
    outer loop
      vertex -0.978148 0.207912 1
      vertex -0.978148 -0.207912 1
      vertex -0.913545 -0.406737 1
    endloop
  endfacet
  facet normal 0 -0 1
    outer loop
      vertex -0.978148 -0.207912 1
      vertex -0.978148 0.207912 1
      vertex -1 -0 1
    endloop
  endfacet
endsolid OpenSCAD_Model
