solid demo
  facet normal 5.0 1.34 2.0
    outer loop
      vertex 1.0 0.0 0
      vertex 0.866 0.5 0
      vertex -3.0 0.0 10
    endloop
  endfacet
  facet normal 3.66 3.66 1.9998606
    outer loop
      vertex 0.866 0.5 0
      vertex 0.5 0.866 0
      vertex -2.5981 -1.5 10
    endloop
  endfacet
  facet normal 1.34 5.0 2.00005
    outer loop
      vertex 0.5 0.866 0
      vertex 0.0 1.0 0
      vertex -1.5 -2.5981 10
    endloop
  endfacet
  facet normal -1.34 5.0 2.0
    outer loop
      vertex 0.0 1.0 0
      vertex -0.5 0.866 0
      vertex -0.0 -3.0 10
    endloop
  endfacet
  facet normal -3.66 3.66 1.9998606
    outer loop
      vertex -0.5 0.866 0
      vertex -0.866 0.5 0
      vertex 1.5 -2.5981 10
    endloop
  endfacet
  facet normal -5.0 1.34 2.00005
    outer loop
      vertex -0.866 0.5 0
      vertex -1.0 0.0 0
      vertex 2.5981 -1.5 10
    endloop
  endfacet
  facet normal -5.0 -1.34 2.0
    outer loop
      vertex -1.0 0.0 0
      vertex -0.866 -0.5 0
      vertex 3.0 -0.0 10
    endloop
  endfacet
  facet normal -3.66 -3.66 1.9998606
    outer loop
      vertex -0.866 -0.5 0
      vertex -0.5 -0.866 0
      vertex 2.5981 1.5 10
    endloop
  endfacet
  facet normal -1.34 -5.0 2.00005
    outer loop
      vertex -0.5 -0.866 0
      vertex -0.0 -1.0 0
      vertex 1.5 2.5981 10
    endloop
  endfacet
  facet normal 1.34 -5.0 2.0
    outer loop
      vertex -0.0 -1.0 0
      vertex 0.5 -0.866 0
      vertex 0.0 3.0 10
    endloop
  endfacet
  facet normal 3.66 -3.66 1.9998606
    outer loop
      vertex 0.5 -0.866 0
      vertex 0.866 -0.5 0
      vertex -1.5 2.5981 10
    endloop
  endfacet
  facet normal 5.0 -1.34 2.00005
    outer loop
      vertex 0.866 -0.5 0
      vertex 1.0 0.0 0
      vertex -2.5981 1.5 10
    endloop
  endfacet
  facet normal -15.0 -4.018999999999998 -5.99995
    outer loop
      vertex 0.866 0.5 0
      vertex -2.5981 -1.5 10
      vertex -3.0 0.0 10
    endloop
  endfacet
  facet normal -10.981000000000005 -10.981000000000002 -6.000128210000001
    outer loop
      vertex 0.5 0.866 0
      vertex -1.5 -2.5981 10
      vertex -2.5981 -1.5 10
    endloop
  endfacet
  facet normal -4.018999999999998 -15.0 -6.0
    outer loop
      vertex 0.0 1.0 0
      vertex -0.0 -3.0 10
      vertex -1.5 -2.5981 10
    endloop
  endfacet
  facet normal 4.018999999999998 -15.0 -5.99995
    outer loop
      vertex -0.5 0.866 0
      vertex 1.5 -2.5981 10
      vertex -0.0 -3.0 10
    endloop
  endfacet
  facet normal 10.981000000000002 -10.981000000000005 -6.000128210000001
    outer loop
      vertex -0.866 0.5 0
      vertex 2.5981 -1.5 10
      vertex 1.5 -2.5981 10
    endloop
  endfacet
  facet normal 15.0 -4.018999999999998 -6.0
    outer loop
      vertex -1.0 0.0 0
      vertex 3.0 -0.0 10
      vertex 2.5981 -1.5 10
    endloop
  endfacet
  facet normal 15.0 4.018999999999998 -5.99995
    outer loop
      vertex -0.866 -0.5 0
      vertex 2.5981 1.5 10
      vertex 3.0 -0.0 10
    endloop
  endfacet
  facet normal 10.981000000000005 10.981000000000002 -6.000128210000001
    outer loop
      vertex -0.5 -0.866 0
      vertex 1.5 2.5981 10
      vertex 2.5981 1.5 10
    endloop
  endfacet
  facet normal 4.018999999999998 15.0 -6.0
    outer loop
      vertex -0.0 -1.0 0
      vertex 0.0 3.0 10
      vertex 1.5 2.5981 10
    endloop
  endfacet
  facet normal -4.018999999999998 15.0 -5.99995
    outer loop
      vertex 0.5 -0.866 0
      vertex -1.5 2.5981 10
      vertex 0.0 3.0 10
    endloop
  endfacet
  facet normal -10.981000000000002 10.981000000000005 -6.000128210000001
    outer loop
      vertex 0.866 -0.5 0
      vertex -2.5981 1.5 10
      vertex -1.5 2.5981 10
    endloop
  endfacet
  facet normal -15.0 4.018999999999998 -6.0
    outer loop
      vertex 1.0 0.0 0
      vertex -3.0 0.0 10
      vertex -2.5981 1.5 10
    endloop
  endfacet
  facet normal 0.0 0.0 -0.366
    outer loop
      vertex 0.866 -0.5 0
      vertex 0.5 0.866 0
      vertex 0.866 0.5 0
    endloop
  endfacet
  facet normal 0.0 0.0 -0.866
    outer loop
      vertex 0.5 -0.866 0
      vertex 0.0 1.0 0
      vertex 0.5 0.866 0
    endloop
  endfacet
  facet normal 0.0 0.0 -1.0
    outer loop
      vertex 0.0 -1.0 0
      vertex -0.5 0.866 0
      vertex 0.0 1.0 0
    endloop
  endfacet
  facet normal 0.0 0.0 -0.633912
    outer loop
      vertex -0.5 -0.866 0
      vertex -0.866 0.5 0
      vertex -0.5 0.866 0
    endloop
  endfacet
  facet normal 0.0 0.0 -0.134
    outer loop
      vertex -0.866 -0.5 0
      vertex -1.0 0.0 0
      vertex -0.866 0.5 0
    endloop
  endfacet
  facet normal 0.0 0.0 -0.366
    outer loop
      vertex -0.866 0.5 0
      vertex -0.5 -0.866 0
      vertex -0.866 -0.5 0
    endloop
  endfacet
  facet normal 0.0 0.0 -0.866
    outer loop
      vertex -0.5 0.866 0
      vertex -0.0 -1.0 0
      vertex -0.5 -0.866 0
    endloop
  endfacet
  facet normal 0.0 0.0 -1.0
    outer loop
      vertex -0.0 1.0 0
      vertex 0.5 -0.866 0
      vertex -0.0 -1.0 0
    endloop
  endfacet
  facet normal 0.0 0.0 -0.633912
    outer loop
      vertex 0.5 0.866 0
      vertex 0.866 -0.5 0
      vertex 0.5 -0.866 0
    endloop
  endfacet
  facet normal 0.0 0.0 -0.134
    outer loop
      vertex 0.866 0.5 0
      vertex 1.0 0.0 0
      vertex 0.866 -0.5 0
    endloop
  endfacet
  facet normal -0.0 0.0 3.2943000000000002
    outer loop
      vertex -2.5981 -1.5 10
      vertex -1.5 -2.5981 10
      vertex -2.5981 1.5 10
    endloop
  endfacet
  facet normal -0.0 0.0 7.7943
    outer loop
      vertex -1.5 -2.5981 10
      vertex -0.0 -3.0 10
      vertex -1.5 2.5981 10
    endloop
  endfacet
  facet normal 0.0 0.0 9.0
    outer loop
      vertex -0.0 -3.0 10
      vertex 1.5 -2.5981 10
      vertex -0.0 3.0 10
    endloop
  endfacet
  facet normal 0.0 0.0 5.7059472200000005
    outer loop
      vertex 1.5 -2.5981 10
      vertex 2.5981 -1.5 10
      vertex 1.5 2.5981 10
    endloop
  endfacet
  facet normal 0.0 0.0 1.2056999999999998
    outer loop
      vertex 2.5981 -1.5 10
      vertex 3.0 -0.0 10
      vertex 2.5981 1.5 10
    endloop
  endfacet
  facet normal 0.0 0.0 3.2943000000000002
    outer loop
      vertex 2.5981 1.5 10
      vertex 1.5 2.5981 10
      vertex 2.5981 -1.5 10
    endloop
  endfacet
  facet normal 0.0 0.0 7.7943
    outer loop
      vertex 1.5 2.5981 10
      vertex 0.0 3.0 10
      vertex 1.5 -2.5981 10
    endloop
  endfacet
  facet normal 0.0 0.0 9.0
    outer loop
      vertex 0.0 3.0 10
      vertex -1.5 2.5981 10
      vertex 0.0 -3.0 10
    endloop
  endfacet
  facet normal 0.0 0.0 5.7059472200000005
    outer loop
      vertex -1.5 2.5981 10
      vertex -2.5981 1.5 10
      vertex -1.5 -2.5981 10
    endloop
  endfacet
  facet normal 0.0 0.0 1.2056999999999998
    outer loop
      vertex -2.5981 1.5 10
      vertex -3.0 0.0 10
      vertex -2.5981 -1.5 10
    endloop
  endfacet
endsolid demo