solid demo
  facet normal 1.732 1.0 -0.0
    outer loop
      vertex 1.0 0.0 0
      vertex 0.5 0.866 0
      vertex 1.0 0.0 2
    endloop
  endfacet
  facet normal 0.0 2.0 -0.0
    outer loop
      vertex 0.5 0.866 0
      vertex -0.5 0.866 0
      vertex 0.5 0.866 2
    endloop
  endfacet
  facet normal -1.732 1.0 0.0
    outer loop
      vertex -0.5 0.866 0
      vertex -1.0 0.0 0
      vertex -0.5 0.866 2
    endloop
  endfacet
  facet normal -1.732 -1.0 0.0
    outer loop
      vertex -1.0 0.0 0
      vertex -0.5 -0.866 0
      vertex -1.0 0.0 2
    endloop
  endfacet
  facet normal 0.0 -2.0 0.0
    outer loop
      vertex -0.5 -0.866 0
      vertex 0.5 -0.866 0
      vertex -0.5 -0.866 2
    endloop
  endfacet
  facet normal 1.732 -1.0 0.0
    outer loop
      vertex 0.5 -0.866 0
      vertex 1.0 0.0 0
      vertex 0.5 -0.866 2
    endloop
  endfacet
  facet normal 1.732 1.0 -0.0
    outer loop
      vertex 0.5 0.866 0
      vertex 0.5 0.866 2
      vertex 1.0 0.0 2
    endloop
  endfacet
  facet normal 0.0 2.0 0.0
    outer loop
      vertex -0.5 0.866 0
      vertex -0.5 0.866 2
      vertex 0.5 0.866 2
    endloop
  endfacet
  facet normal -1.732 1.0 0.0
    outer loop
      vertex -1.0 0.0 0
      vertex -1.0 0.0 2
      vertex -0.5 0.866 2
    endloop
  endfacet
  facet normal -1.732 -1.0 0.0
    outer loop
      vertex -0.5 -0.866 0
      vertex -0.5 -0.866 2
      vertex -1.0 0.0 2
    endloop
  endfacet
  facet normal 0.0 -2.0 0.0
    outer loop
      vertex 0.5 -0.866 0
      vertex 0.5 -0.866 2
      vertex -0.5 -0.866 2
    endloop
  endfacet
  facet normal 1.732 -1.0 0.0
    outer loop
      vertex 1.0 0.0 0
      vertex 1.0 0.0 2
      vertex 0.5 -0.866 2
    endloop
  endfacet
  facet normal 0.0 0.0 -1.732
    outer loop
      vertex 0.5 -0.866 0
      vertex -0.5 0.866 0
      vertex 0.5 0.866 0
    endloop
  endfacet
  facet normal 0.0 0.0 -0.866
    outer loop
      vertex -0.5 -0.866 0
      vertex -1.0 0.0 0
      vertex -0.5 0.866 0
    endloop
  endfacet
  facet normal 0.0 0.0 -1.732
    outer loop
      vertex -0.5 0.866 0
      vertex 0.5 -0.866 0
      vertex -0.5 -0.866 0
    endloop
  endfacet
  facet normal 0.0 0.0 -0.866
    outer loop
      vertex 0.5 0.866 0
      vertex 1.0 0.0 0
      vertex 0.5 -0.866 0
    endloop
  endfacet
  facet normal 0.0 0.0 1.732
    outer loop
      vertex 0.5 0.866 2
      vertex -0.5 0.866 2
      vertex 0.5 -0.866 2
    endloop
  endfacet
  facet normal 0.0 0.0 0.866
    outer loop
      vertex -0.5 0.866 2
      vertex -1.0 0.0 2
      vertex -0.5 -0.866 2
    endloop
  endfacet
  facet normal 0.0 0.0 1.732
    outer loop
      vertex -0.5 -0.866 2
      vertex 0.5 -0.866 2
      vertex -0.5 0.866 2
    endloop
  endfacet
  facet normal 0.0 0.0 0.866
    outer loop
      vertex 0.5 -0.866 2
      vertex 1.0 0.0 2
      vertex 0.5 0.866 2
    endloop
  endfacet
endsolid demo