solid high
  facet normal 5.2090000000000005 0.45599999999999863 -0.0
    outer loop
      vertex 3.0 0.0 0
      vertex 2.9544 0.5209 0
      vertex 3.0 0.0 10
    endloop
  endfacet
  facet normal 5.052 1.3529999999999998 -0.0
    outer loop
      vertex 2.9544 0.5209 0
      vertex 2.8191 1.0261 0
      vertex 2.9544 0.5209 10
    endloop
  endfacet
  facet normal 4.739 2.210000000000001 -0.0
    outer loop
      vertex 2.8191 1.0261 0
      vertex 2.5981 1.5 0
      vertex 2.8191 1.0261 10
    endloop
  endfacet
  facet normal 4.283999999999999 3.0000000000000027 -0.0
    outer loop
      vertex 2.5981 1.5 0
      vertex 2.2981 1.9284 0
      vertex 2.5981 1.5 10
    endloop
  endfacet
  facet normal 3.696999999999999 3.696999999999999 -0.0
    outer loop
      vertex 2.2981 1.9284 0
      vertex 1.9284 2.2981 0
      vertex 2.2981 1.9284 10
    endloop
  endfacet
  facet normal 3.0000000000000027 4.283999999999999 -0.0
    outer loop
      vertex 1.9284 2.2981 0
      vertex 1.5 2.5981 0
      vertex 1.9284 2.2981 10
    endloop
  endfacet
  facet normal 2.210000000000001 4.739 -0.0
    outer loop
      vertex 1.5 2.5981 0
      vertex 1.0261 2.8191 0
      vertex 1.5 2.5981 10
    endloop
  endfacet
  facet normal 1.3529999999999998 5.052 -0.0
    outer loop
      vertex 1.0261 2.8191 0
      vertex 0.5209 2.9544 0
      vertex 1.0261 2.8191 10
    endloop
  endfacet
  facet normal 0.45599999999999863 5.2090000000000005 -0.0
    outer loop
      vertex 0.5209 2.9544 0
      vertex 0.0 3.0 0
      vertex 0.5209 2.9544 10
    endloop
  endfacet
  facet normal -0.45599999999999863 5.2090000000000005 0.0
    outer loop
      vertex 0.0 3.0 0
      vertex -0.5209 2.9544 0
      vertex 0.0 3.0 10
    endloop
  endfacet
  facet normal -1.3529999999999998 5.052 0.0
    outer loop
      vertex -0.5209 2.9544 0
      vertex -1.0261 2.8191 0
      vertex -0.5209 2.9544 10
    endloop
  endfacet
  facet normal -2.210000000000001 4.739 0.0
    outer loop
      vertex -1.0261 2.8191 0
      vertex -1.5 2.5981 0
      vertex -1.0261 2.8191 10
    endloop
  endfacet
  facet normal -3.0000000000000027 4.283999999999999 0.0
    outer loop
      vertex -1.5 2.5981 0
      vertex -1.9284 2.2981 0
      vertex -1.5 2.5981 10
    endloop
  endfacet
  facet normal -3.696999999999999 3.696999999999999 0.0
    outer loop
      vertex -1.9284 2.2981 0
      vertex -2.2981 1.9284 0
      vertex -1.9284 2.2981 10
    endloop
  endfacet
  facet normal -4.283999999999999 3.0000000000000027 0.0
    outer loop
      vertex -2.2981 1.9284 0
      vertex -2.5981 1.5 0
      vertex -2.2981 1.9284 10
    endloop
  endfacet
  facet normal -4.739 2.210000000000001 0.0
    outer loop
      vertex -2.5981 1.5 0
      vertex -2.8191 1.0261 0
      vertex -2.5981 1.5 10
    endloop
  endfacet
  facet normal -5.052 1.3529999999999998 0.0
    outer loop
      vertex -2.8191 1.0261 0
      vertex -2.9544 0.5209 0
      vertex -2.8191 1.0261 10
    endloop
  endfacet
  facet normal -5.2090000000000005 0.45599999999999863 0.0
    outer loop
      vertex -2.9544 0.5209 0
      vertex -3.0 0.0 0
      vertex -2.9544 0.5209 10
    endloop
  endfacet
  facet normal -5.2090000000000005 -0.45599999999999863 0.0
    outer loop
      vertex -3.0 0.0 0
      vertex -2.9544 -0.5209 0
      vertex -3.0 0.0 10
    endloop
  endfacet
  facet normal -5.052 -1.3529999999999998 0.0
    outer loop
      vertex -2.9544 -0.5209 0
      vertex -2.8191 -1.0261 0
      vertex -2.9544 -0.5209 10
    endloop
  endfacet
  facet normal -4.739 -2.210000000000001 0.0
    outer loop
      vertex -2.8191 -1.0261 0
      vertex -2.5981 -1.5 0
      vertex -2.8191 -1.0261 10
    endloop
  endfacet
  facet normal -4.283999999999999 -3.0000000000000027 0.0
    outer loop
      vertex -2.5981 -1.5 0
      vertex -2.2981 -1.9284 0
      vertex -2.5981 -1.5 10
    endloop
  endfacet
  facet normal -3.696999999999999 -3.696999999999999 0.0
    outer loop
      vertex -2.2981 -1.9284 0
      vertex -1.9284 -2.2981 0
      vertex -2.2981 -1.9284 10
    endloop
  endfacet
  facet normal -3.0000000000000027 -4.283999999999999 0.0
    outer loop
      vertex -1.9284 -2.2981 0
      vertex -1.5 -2.5981 0
      vertex -1.9284 -2.2981 10
    endloop
  endfacet
  facet normal -2.210000000000001 -4.739 0.0
    outer loop
      vertex -1.5 -2.5981 0
      vertex -1.0261 -2.8191 0
      vertex -1.5 -2.5981 10
    endloop
  endfacet
  facet normal -1.3529999999999998 -5.052 0.0
    outer loop
      vertex -1.0261 -2.8191 0
      vertex -0.5209 -2.9544 0
      vertex -1.0261 -2.8191 10
    endloop
  endfacet
  facet normal -0.45599999999999863 -5.2090000000000005 0.0
    outer loop
      vertex -0.5209 -2.9544 0
      vertex -0.0 -3.0 0
      vertex -0.5209 -2.9544 10
    endloop
  endfacet
  facet normal 0.45599999999999863 -5.2090000000000005 0.0
    outer loop
      vertex -0.0 -3.0 0
      vertex 0.5209 -2.9544 0
      vertex -0.0 -3.0 10
    endloop
  endfacet
  facet normal 1.3529999999999998 -5.052 0.0
    outer loop
      vertex 0.5209 -2.9544 0
      vertex 1.0261 -2.8191 0
      vertex 0.5209 -2.9544 10
    endloop
  endfacet
  facet normal 2.210000000000001 -4.739 0.0
    outer loop
      vertex 1.0261 -2.8191 0
      vertex 1.5 -2.5981 0
      vertex 1.0261 -2.8191 10
    endloop
  endfacet
  facet normal 3.0000000000000027 -4.283999999999999 0.0
    outer loop
      vertex 1.5 -2.5981 0
      vertex 1.9284 -2.2981 0
      vertex 1.5 -2.5981 10
    endloop
  endfacet
  facet normal 3.696999999999999 -3.696999999999999 0.0
    outer loop
      vertex 1.9284 -2.2981 0
      vertex 2.2981 -1.9284 0
      vertex 1.9284 -2.2981 10
    endloop
  endfacet
  facet normal 4.283999999999999 -3.0000000000000027 0.0
    outer loop
      vertex 2.2981 -1.9284 0
      vertex 2.5981 -1.5 0
      vertex 2.2981 -1.9284 10
    endloop
  endfacet
  facet normal 4.739 -2.210000000000001 0.0
    outer loop
      vertex 2.5981 -1.5 0
      vertex 2.8191 -1.0261 0
      vertex 2.5981 -1.5 10
    endloop
  endfacet
  facet normal 5.052 -1.3529999999999998 0.0
    outer loop
      vertex 2.8191 -1.0261 0
      vertex 2.9544 -0.5209 0
      vertex 2.8191 -1.0261 10
    endloop
  endfacet
  facet normal 5.2090000000000005 -0.45599999999999863 0.0
    outer loop
      vertex 2.9544 -0.5209 0
      vertex 3.0 0.0 0
      vertex 2.9544 -0.5209 10
    endloop
  endfacet
  facet normal 5.2090000000000005 0.45599999999999863 -0.0
    outer loop
      vertex 2.9544 0.5209 0
      vertex 2.9544 0.5209 10
      vertex 3.0 0.0 10
    endloop
  endfacet
  facet normal 5.052 1.3529999999999998 -0.0
    outer loop
      vertex 2.8191 1.0261 0
      vertex 2.8191 1.0261 10
      vertex 2.9544 0.5209 10
    endloop
  endfacet
  facet normal 4.739 2.210000000000001 -0.0
    outer loop
      vertex 2.5981 1.5 0
      vertex 2.5981 1.5 10
      vertex 2.8191 1.0261 10
    endloop
  endfacet
  facet normal 4.283999999999999 3.0000000000000027 -0.0
    outer loop
      vertex 2.2981 1.9284 0
      vertex 2.2981 1.9284 10
      vertex 2.5981 1.5 10
    endloop
  endfacet
  facet normal 3.696999999999999 3.696999999999999 -0.0
    outer loop
      vertex 1.9284 2.2981 0
      vertex 1.9284 2.2981 10
      vertex 2.2981 1.9284 10
    endloop
  endfacet
  facet normal 3.0000000000000027 4.283999999999999 -0.0
    outer loop
      vertex 1.5 2.5981 0
      vertex 1.5 2.5981 10
      vertex 1.9284 2.2981 10
    endloop
  endfacet
  facet normal 2.210000000000001 4.739 -0.0
    outer loop
      vertex 1.0261 2.8191 0
      vertex 1.0261 2.8191 10
      vertex 1.5 2.5981 10
    endloop
  endfacet
  facet normal 1.3529999999999998 5.052 -0.0
    outer loop
      vertex 0.5209 2.9544 0
      vertex 0.5209 2.9544 10
      vertex 1.0261 2.8191 10
    endloop
  endfacet
  facet normal 0.45599999999999863 5.2090000000000005 -0.0
    outer loop
      vertex 0.0 3.0 0
      vertex 0.0 3.0 10
      vertex 0.5209 2.9544 10
    endloop
  endfacet
  facet normal -0.45599999999999863 5.2090000000000005 0.0
    outer loop
      vertex -0.5209 2.9544 0
      vertex -0.5209 2.9544 10
      vertex 0.0 3.0 10
    endloop
  endfacet
  facet normal -1.3529999999999998 5.052 0.0
    outer loop
      vertex -1.0261 2.8191 0
      vertex -1.0261 2.8191 10
      vertex -0.5209 2.9544 10
    endloop
  endfacet
  facet normal -2.210000000000001 4.739 0.0
    outer loop
      vertex -1.5 2.5981 0
      vertex -1.5 2.5981 10
      vertex -1.0261 2.8191 10
    endloop
  endfacet
  facet normal -3.0000000000000027 4.283999999999999 0.0
    outer loop
      vertex -1.9284 2.2981 0
      vertex -1.9284 2.2981 10
      vertex -1.5 2.5981 10
    endloop
  endfacet
  facet normal -3.696999999999999 3.696999999999999 0.0
    outer loop
      vertex -2.2981 1.9284 0
      vertex -2.2981 1.9284 10
      vertex -1.9284 2.2981 10
    endloop
  endfacet
  facet normal -4.283999999999999 3.0000000000000027 0.0
    outer loop
      vertex -2.5981 1.5 0
      vertex -2.5981 1.5 10
      vertex -2.2981 1.9284 10
    endloop
  endfacet
  facet normal -4.739 2.210000000000001 0.0
    outer loop
      vertex -2.8191 1.0261 0
      vertex -2.8191 1.0261 10
      vertex -2.5981 1.5 10
    endloop
  endfacet
  facet normal -5.052 1.3529999999999998 0.0
    outer loop
      vertex -2.9544 0.5209 0
      vertex -2.9544 0.5209 10
      vertex -2.8191 1.0261 10
    endloop
  endfacet
  facet normal -5.2090000000000005 0.45599999999999863 0.0
    outer loop
      vertex -3.0 0.0 0
      vertex -3.0 0.0 10
      vertex -2.9544 0.5209 10
    endloop
  endfacet
  facet normal -5.2090000000000005 -0.45599999999999863 0.0
    outer loop
      vertex -2.9544 -0.5209 0
      vertex -2.9544 -0.5209 10
      vertex -3.0 0.0 10
    endloop
  endfacet
  facet normal -5.052 -1.3529999999999998 0.0
    outer loop
      vertex -2.8191 -1.0261 0
      vertex -2.8191 -1.0261 10
      vertex -2.9544 -0.5209 10
    endloop
  endfacet
  facet normal -4.739 -2.210000000000001 0.0
    outer loop
      vertex -2.5981 -1.5 0
      vertex -2.5981 -1.5 10
      vertex -2.8191 -1.0261 10
    endloop
  endfacet
  facet normal -4.283999999999999 -3.0000000000000027 0.0
    outer loop
      vertex -2.2981 -1.9284 0
      vertex -2.2981 -1.9284 10
      vertex -2.5981 -1.5 10
    endloop
  endfacet
  facet normal -3.696999999999999 -3.696999999999999 0.0
    outer loop
      vertex -1.9284 -2.2981 0
      vertex -1.9284 -2.2981 10
      vertex -2.2981 -1.9284 10
    endloop
  endfacet
  facet normal -3.0000000000000027 -4.283999999999999 0.0
    outer loop
      vertex -1.5 -2.5981 0
      vertex -1.5 -2.5981 10
      vertex -1.9284 -2.2981 10
    endloop
  endfacet
  facet normal -2.210000000000001 -4.739 0.0
    outer loop
      vertex -1.0261 -2.8191 0
      vertex -1.0261 -2.8191 10
      vertex -1.5 -2.5981 10
    endloop
  endfacet
  facet normal -1.3529999999999998 -5.052 0.0
    outer loop
      vertex -0.5209 -2.9544 0
      vertex -0.5209 -2.9544 10
      vertex -1.0261 -2.8191 10
    endloop
  endfacet
  facet normal -0.45599999999999863 -5.2090000000000005 0.0
    outer loop
      vertex -0.0 -3.0 0
      vertex -0.0 -3.0 10
      vertex -0.5209 -2.9544 10
    endloop
  endfacet
  facet normal 0.45599999999999863 -5.2090000000000005 0.0
    outer loop
      vertex 0.5209 -2.9544 0
      vertex 0.5209 -2.9544 10
      vertex -0.0 -3.0 10
    endloop
  endfacet
  facet normal 1.3529999999999998 -5.052 0.0
    outer loop
      vertex 1.0261 -2.8191 0
      vertex 1.0261 -2.8191 10
      vertex 0.5209 -2.9544 10
    endloop
  endfacet
  facet normal 2.210000000000001 -4.739 0.0
    outer loop
      vertex 1.5 -2.5981 0
      vertex 1.5 -2.5981 10
      vertex 1.0261 -2.8191 10
    endloop
  endfacet
  facet normal 3.0000000000000027 -4.283999999999999 0.0
    outer loop
      vertex 1.9284 -2.2981 0
      vertex 1.9284 -2.2981 10
      vertex 1.5 -2.5981 10
    endloop
  endfacet
  facet normal 3.696999999999999 -3.696999999999999 0.0
    outer loop
      vertex 2.2981 -1.9284 0
      vertex 2.2981 -1.9284 10
      vertex 1.9284 -2.2981 10
    endloop
  endfacet
  facet normal 4.283999999999999 -3.0000000000000027 0.0
    outer loop
      vertex 2.5981 -1.5 0
      vertex 2.5981 -1.5 10
      vertex 2.2981 -1.9284 10
    endloop
  endfacet
  facet normal 4.739 -2.210000000000001 0.0
    outer loop
      vertex 2.8191 -1.0261 0
      vertex 2.8191 -1.0261 10
      vertex 2.5981 -1.5 10
    endloop
  endfacet
  facet normal 5.052 -1.3529999999999998 0.0
    outer loop
      vertex 2.9544 -0.5209 0
      vertex 2.9544 -0.5209 10
      vertex 2.8191 -1.0261 10
    endloop
  endfacet
  facet normal 5.2090000000000005 -0.45599999999999863 0.0
    outer loop
      vertex 3.0 0.0 0
      vertex 3.0 0.0 10
      vertex 2.9544 -0.5209 10
    endloop
  endfacet
  facet normal 0.0 0.0 -0.14095554
    outer loop
      vertex 2.9544 -0.5209 0
      vertex 2.8191 1.0261 0
      vertex 2.9544 0.5209 0
    endloop
  endfacet
  facet normal 0.0 0.0 -0.45353620000000017
    outer loop
      vertex 2.8191 -1.0261 0
      vertex 2.5981 1.5 0
      vertex 2.8191 1.0261 0
    endloop
  endfacet
  facet normal 0.0 0.0 -0.9000000000000008
    outer loop
      vertex 2.5981 -1.5 0
      vertex 2.2981 1.9284 0
      vertex 2.5981 1.5 0
    endloop
  endfacet
  facet normal 0.0 0.0 -1.4258589599999996
    outer loop
      vertex 2.2981 -1.9284 0
      vertex 1.9284 2.2981 0
      vertex 2.2981 1.9284 0
    endloop
  endfacet
  facet normal 0.0 0.0 -1.9690120799999993
    outer loop
      vertex 1.9284 -2.2981 0
      vertex 1.5 2.5981 0
      vertex 1.9284 2.2981 0
    endloop
  endfacet
  facet normal 0.0 0.0 -2.46247918
    outer loop
      vertex 1.5 -2.5981 0
      vertex 1.0261 2.8191 0
      vertex 1.5 2.5981 0
    endloop
  endfacet
  facet normal 0.0 0.0 -2.8484186400000002
    outer loop
      vertex 1.0261 -2.8191 0
      vertex 0.5209 2.9544 0
      vertex 1.0261 2.8191 0
    endloop
  endfacet
  facet normal 0.0 0.0 -3.07789392
    outer loop
      vertex 0.5209 -2.9544 0
      vertex 0.0 3.0 0
      vertex 0.5209 2.9544 0
    endloop
  endfacet
  facet normal 0.0 0.0 -3.1254
    outer loop
      vertex 0.0 -3.0 0
      vertex -0.5209 2.9544 0
      vertex 0.0 3.0 0
    endloop
  endfacet
  facet normal 0.0 0.0 -2.98512576
    outer loop
      vertex -0.5209 -2.9544 0
      vertex -1.0261 2.8191 0
      vertex -0.5209 2.9544 0
    endloop
  endfacet
  facet normal 0.0 0.0 -2.6719429800000003
    outer loop
      vertex -1.0261 -2.8191 0
      vertex -1.5 2.5981 0
      vertex -1.0261 2.8191 0
    endloop
  endfacet
  facet normal 0.0 0.0 -2.2260520799999997
    outer loop
      vertex -1.5 -2.5981 0
      vertex -1.9284 2.2981 0
      vertex -1.5 2.5981 0
    endloop
  endfacet
  facet normal 0.0 0.0 -1.6992151399999995
    outer loop
      vertex -1.9284 -2.2981 0
      vertex -2.2981 1.9284 0
      vertex -1.9284 2.2981 0
    endloop
  endfacet
  facet normal 0.0 0.0 -1.157040000000001
    outer loop
      vertex -2.2981 -1.9284 0
      vertex -2.5981 1.5 0
      vertex -2.2981 1.9284 0
    endloop
  endfacet
  facet normal 0.0 0.0 -0.6630000000000003
    outer loop
      vertex -2.5981 -1.5 0
      vertex -2.8191 1.0261 0
      vertex -2.5981 1.5 0
    endloop
  endfacet
  facet normal 0.0 0.0 -0.27766265999999995
    outer loop
      vertex -2.8191 -1.0261 0
      vertex -2.9544 0.5209 0
      vertex -2.8191 1.0261 0
    endloop
  endfacet
  facet normal 0.0 0.0 -0.04750607999999986
    outer loop
      vertex -2.9544 -0.5209 0
      vertex -3.0 0.0 0
      vertex -2.9544 0.5209 0
    endloop
  endfacet
  facet normal 0.0 0.0 -0.14095554
    outer loop
      vertex -2.9544 0.5209 0
      vertex -2.8191 -1.0261 0
      vertex -2.9544 -0.5209 0
    endloop
  endfacet
  facet normal 0.0 0.0 -0.45353620000000017
    outer loop
      vertex -2.8191 1.0261 0
      vertex -2.5981 -1.5 0
      vertex -2.8191 -1.0261 0
    endloop
  endfacet
  facet normal 0.0 0.0 -0.9000000000000008
    outer loop
      vertex -2.5981 1.5 0
      vertex -2.2981 -1.9284 0
      vertex -2.5981 -1.5 0
    endloop
  endfacet
  facet normal 0.0 0.0 -1.4258589599999996
    outer loop
      vertex -2.2981 1.9284 0
      vertex -1.9284 -2.2981 0
      vertex -2.2981 -1.9284 0
    endloop
  endfacet
  facet normal 0.0 0.0 -1.9690120799999993
    outer loop
      vertex -1.9284 2.2981 0
      vertex -1.5 -2.5981 0
      vertex -1.9284 -2.2981 0
    endloop
  endfacet
  facet normal 0.0 0.0 -2.46247918
    outer loop
      vertex -1.5 2.5981 0
      vertex -1.0261 -2.8191 0
      vertex -1.5 -2.5981 0
    endloop
  endfacet
  facet normal 0.0 0.0 -2.8484186400000002
    outer loop
      vertex -1.0261 2.8191 0
      vertex -0.5209 -2.9544 0
      vertex -1.0261 -2.8191 0
    endloop
  endfacet
  facet normal 0.0 0.0 -3.07789392
    outer loop
      vertex -0.5209 2.9544 0
      vertex -0.0 -3.0 0
      vertex -0.5209 -2.9544 0
    endloop
  endfacet
  facet normal 0.0 0.0 -3.1254
    outer loop
      vertex -0.0 3.0 0
      vertex 0.5209 -2.9544 0
      vertex -0.0 -3.0 0
    endloop
  endfacet
  facet normal 0.0 0.0 -2.98512576
    outer loop
      vertex 0.5209 2.9544 0
      vertex 1.0261 -2.8191 0
      vertex 0.5209 -2.9544 0
    endloop
  endfacet
  facet normal 0.0 0.0 -2.6719429800000003
    outer loop
      vertex 1.0261 2.8191 0
      vertex 1.5 -2.5981 0
      vertex 1.0261 -2.8191 0
    endloop
  endfacet
  facet normal 0.0 0.0 -2.2260520799999997
    outer loop
      vertex 1.5 2.5981 0
      vertex 1.9284 -2.2981 0
      vertex 1.5 -2.5981 0
    endloop
  endfacet
  facet normal 0.0 0.0 -1.6992151399999995
    outer loop
      vertex 1.9284 2.2981 0
      vertex 2.2981 -1.9284 0
      vertex 1.9284 -2.2981 0
    endloop
  endfacet
  facet normal 0.0 0.0 -1.157040000000001
    outer loop
      vertex 2.2981 1.9284 0
      vertex 2.5981 -1.5 0
      vertex 2.2981 -1.9284 0
    endloop
  endfacet
  facet normal 0.0 0.0 -0.6630000000000003
    outer loop
      vertex 2.5981 1.5 0
      vertex 2.8191 -1.0261 0
      vertex 2.5981 -1.5 0
    endloop
  endfacet
  facet normal 0.0 0.0 -0.27766265999999995
    outer loop
      vertex 2.8191 1.0261 0
      vertex 2.9544 -0.5209 0
      vertex 2.8191 -1.0261 0
    endloop
  endfacet
  facet normal 0.0 0.0 -0.04750607999999986
    outer loop
      vertex 2.9544 0.5209 0
      vertex 3.0 0.0 0
      vertex 2.9544 -0.5209 0
    endloop
  endfacet
  facet normal 0.0 0.0 0.14095554
    outer loop
      vertex 2.9544 0.5209 10
      vertex 2.8191 1.0261 10
      vertex 2.9544 -0.5209 10
    endloop
  endfacet
  facet normal 0.0 0.0 0.45353620000000017
    outer loop
      vertex 2.8191 1.0261 10
      vertex 2.5981 1.5 10
      vertex 2.8191 -1.0261 10
    endloop
  endfacet
  facet normal 0.0 0.0 0.9000000000000008
    outer loop
      vertex 2.5981 1.5 10
      vertex 2.2981 1.9284 10
      vertex 2.5981 -1.5 10
    endloop
  endfacet
  facet normal 0.0 0.0 1.4258589599999996
    outer loop
      vertex 2.2981 1.9284 10
      vertex 1.9284 2.2981 10
      vertex 2.2981 -1.9284 10
    endloop
  endfacet
  facet normal 0.0 0.0 1.9690120799999993
    outer loop
      vertex 1.9284 2.2981 10
      vertex 1.5 2.5981 10
      vertex 1.9284 -2.2981 10
    endloop
  endfacet
  facet normal 0.0 0.0 2.46247918
    outer loop
      vertex 1.5 2.5981 10
      vertex 1.0261 2.8191 10
      vertex 1.5 -2.5981 10
    endloop
  endfacet
  facet normal 0.0 0.0 2.8484186400000002
    outer loop
      vertex 1.0261 2.8191 10
      vertex 0.5209 2.9544 10
      vertex 1.0261 -2.8191 10
    endloop
  endfacet
  facet normal 0.0 0.0 3.07789392
    outer loop
      vertex 0.5209 2.9544 10
      vertex 0.0 3.0 10
      vertex 0.5209 -2.9544 10
    endloop
  endfacet
  facet normal 0.0 0.0 3.1254
    outer loop
      vertex 0.0 3.0 10
      vertex -0.5209 2.9544 10
      vertex 0.0 -3.0 10
    endloop
  endfacet
  facet normal 0.0 0.0 2.98512576
    outer loop
      vertex -0.5209 2.9544 10
      vertex -1.0261 2.8191 10
      vertex -0.5209 -2.9544 10
    endloop
  endfacet
  facet normal 0.0 0.0 2.6719429800000003
    outer loop
      vertex -1.0261 2.8191 10
      vertex -1.5 2.5981 10
      vertex -1.0261 -2.8191 10
    endloop
  endfacet
  facet normal 0.0 0.0 2.2260520799999997
    outer loop
      vertex -1.5 2.5981 10
      vertex -1.9284 2.2981 10
      vertex -1.5 -2.5981 10
    endloop
  endfacet
  facet normal 0.0 0.0 1.6992151399999995
    outer loop
      vertex -1.9284 2.2981 10
      vertex -2.2981 1.9284 10
      vertex -1.9284 -2.2981 10
    endloop
  endfacet
  facet normal 0.0 0.0 1.157040000000001
    outer loop
      vertex -2.2981 1.9284 10
      vertex -2.5981 1.5 10
      vertex -2.2981 -1.9284 10
    endloop
  endfacet
  facet normal 0.0 0.0 0.6630000000000003
    outer loop
      vertex -2.5981 1.5 10
      vertex -2.8191 1.0261 10
      vertex -2.5981 -1.5 10
    endloop
  endfacet
  facet normal 0.0 0.0 0.27766265999999995
    outer loop
      vertex -2.8191 1.0261 10
      vertex -2.9544 0.5209 10
      vertex -2.8191 -1.0261 10
    endloop
  endfacet
  facet normal 0.0 0.0 0.04750607999999986
    outer loop
      vertex -2.9544 0.5209 10
      vertex -3.0 0.0 10
      vertex -2.9544 -0.5209 10
    endloop
  endfacet
  facet normal -0.0 0.0 0.14095554
    outer loop
      vertex -2.9544 -0.5209 10
      vertex -2.8191 -1.0261 10
      vertex -2.9544 0.5209 10
    endloop
  endfacet
  facet normal -0.0 0.0 0.45353620000000017
    outer loop
      vertex -2.8191 -1.0261 10
      vertex -2.5981 -1.5 10
      vertex -2.8191 1.0261 10
    endloop
  endfacet
  facet normal -0.0 0.0 0.9000000000000008
    outer loop
      vertex -2.5981 -1.5 10
      vertex -2.2981 -1.9284 10
      vertex -2.5981 1.5 10
    endloop
  endfacet
  facet normal -0.0 0.0 1.4258589599999996
    outer loop
      vertex -2.2981 -1.9284 10
      vertex -1.9284 -2.2981 10
      vertex -2.2981 1.9284 10
    endloop
  endfacet
  facet normal -0.0 0.0 1.9690120799999993
    outer loop
      vertex -1.9284 -2.2981 10
      vertex -1.5 -2.5981 10
      vertex -1.9284 2.2981 10
    endloop
  endfacet
  facet normal -0.0 0.0 2.46247918
    outer loop
      vertex -1.5 -2.5981 10
      vertex -1.0261 -2.8191 10
      vertex -1.5 2.5981 10
    endloop
  endfacet
  facet normal -0.0 0.0 2.8484186400000002
    outer loop
      vertex -1.0261 -2.8191 10
      vertex -0.5209 -2.9544 10
      vertex -1.0261 2.8191 10
    endloop
  endfacet
  facet normal -0.0 0.0 3.07789392
    outer loop
      vertex -0.5209 -2.9544 10
      vertex -0.0 -3.0 10
      vertex -0.5209 2.9544 10
    endloop
  endfacet
  facet normal 0.0 0.0 3.1254
    outer loop
      vertex -0.0 -3.0 10
      vertex 0.5209 -2.9544 10
      vertex -0.0 3.0 10
    endloop
  endfacet
  facet normal 0.0 0.0 2.98512576
    outer loop
      vertex 0.5209 -2.9544 10
      vertex 1.0261 -2.8191 10
      vertex 0.5209 2.9544 10
    endloop
  endfacet
  facet normal 0.0 0.0 2.6719429800000003
    outer loop
      vertex 1.0261 -2.8191 10
      vertex 1.5 -2.5981 10
      vertex 1.0261 2.8191 10
    endloop
  endfacet
  facet normal 0.0 0.0 2.2260520799999997
    outer loop
      vertex 1.5 -2.5981 10
      vertex 1.9284 -2.2981 10
      vertex 1.5 2.5981 10
    endloop
  endfacet
  facet normal 0.0 0.0 1.6992151399999995
    outer loop
      vertex 1.9284 -2.2981 10
      vertex 2.2981 -1.9284 10
      vertex 1.9284 2.2981 10
    endloop
  endfacet
  facet normal 0.0 0.0 1.157040000000001
    outer loop
      vertex 2.2981 -1.9284 10
      vertex 2.5981 -1.5 10
      vertex 2.2981 1.9284 10
    endloop
  endfacet
  facet normal 0.0 0.0 0.6630000000000003
    outer loop
      vertex 2.5981 -1.5 10
      vertex 2.8191 -1.0261 10
      vertex 2.5981 1.5 10
    endloop
  endfacet
  facet normal 0.0 0.0 0.27766265999999995
    outer loop
      vertex 2.8191 -1.0261 10
      vertex 2.9544 -0.5209 10
      vertex 2.8191 1.0261 10
    endloop
  endfacet
  facet normal 0.0 0.0 0.04750607999999986
    outer loop
      vertex 2.9544 -0.5209 10
      vertex 3.0 0.0 10
      vertex 2.9544 0.5209 10
    endloop
  endfacet
endsolid high