solid low
  facet normal 25.981 15.0 -0.0
    outer loop
      vertex 3.0 0.0 0
      vertex 1.5 2.5981 0
      vertex 3.0 0.0 10
    endloop
  endfacet
  facet normal 0.0 30.0 -0.0
    outer loop
      vertex 1.5 2.5981 0
      vertex -1.5 2.5981 0
      vertex 1.5 2.5981 10
    endloop
  endfacet
  facet normal -25.981 15.0 0.0
    outer loop
      vertex -1.5 2.5981 0
      vertex -3.0 0.0 0
      vertex -1.5 2.5981 10
    endloop
  endfacet
  facet normal -25.981 -15.0 0.0
    outer loop
      vertex -3.0 0.0 0
      vertex -1.5 -2.5981 0
      vertex -3.0 0.0 10
    endloop
  endfacet
  facet normal 0.0 -30.0 0.0
    outer loop
      vertex -1.5 -2.5981 0
      vertex 1.5 -2.5981 0
      vertex -1.5 -2.5981 10
    endloop
  endfacet
  facet normal 25.981 -15.0 0.0
    outer loop
      vertex 1.5 -2.5981 0
      vertex 3.0 0.0 0
      vertex 1.5 -2.5981 10
    endloop
  endfacet
  facet normal 25.981 15.0 -0.0
    outer loop
      vertex 1.5 2.5981 0
      vertex 1.5 2.5981 10
      vertex 3.0 0.0 10
    endloop
  endfacet
  facet normal 0.0 30.0 0.0
    outer loop
      vertex -1.5 2.5981 0
      vertex -1.5 2.5981 10
      vertex 1.5 2.5981 10
    endloop
  endfacet
  facet normal -25.981 15.0 0.0
    outer loop
      vertex -3.0 0.0 0
      vertex -3.0 0.0 10
      vertex -1.5 2.5981 10
    endloop
  endfacet
  facet normal -25.981 -15.0 0.0
    outer loop
      vertex -1.5 -2.5981 0
      vertex -1.5 -2.5981 10
      vertex -3.0 0.0 10
    endloop
  endfacet
  facet normal 0.0 -30.0 0.0
    outer loop
      vertex 1.5 -2.5981 0
      vertex 1.5 -2.5981 10
      vertex -1.5 -2.5981 10
    endloop
  endfacet
  facet normal 25.981 -15.0 0.0
    outer loop
      vertex 3.0 0.0 0
      vertex 3.0 0.0 10
      vertex 1.5 -2.5981 10
    endloop
  endfacet
  facet normal 0.0 0.0 -15.5886
    outer loop
      vertex 1.5 -2.5981 0
      vertex -1.5 2.5981 0
      vertex 1.5 2.5981 0
    endloop
  endfacet
  facet normal 0.0 0.0 -7.7943
    outer loop
      vertex -1.5 -2.5981 0
      vertex -3.0 0.0 0
      vertex -1.5 2.5981 0
    endloop
  endfacet
  facet normal 0.0 0.0 -15.5886
    outer loop
      vertex -1.5 2.5981 0
      vertex 1.5 -2.5981 0
      vertex -1.5 -2.5981 0
    endloop
  endfacet
  facet normal 0.0 0.0 -7.7943
    outer loop
      vertex 1.5 2.5981 0
      vertex 3.0 0.0 0
      vertex 1.5 -2.5981 0
    endloop
  endfacet
  facet normal 0.0 0.0 15.5886
    outer loop
      vertex 1.5 2.5981 10
      vertex -1.5 2.5981 10
      vertex 1.5 -2.5981 10
    endloop
  endfacet
  facet normal 0.0 0.0 7.7943
    outer loop
      vertex -1.5 2.5981 10
      vertex -3.0 0.0 10
      vertex -1.5 -2.5981 10
    endloop
  endfacet
  facet normal 0.0 0.0 15.5886
    outer loop
      vertex -1.5 -2.5981 10
      vertex 1.5 -2.5981 10
      vertex -1.5 2.5981 10
    endloop
  endfacet
  facet normal 0.0 0.0 7.7943
    outer loop
      vertex 1.5 -2.5981 10
      vertex 3.0 0.0 10
      vertex 1.5 2.5981 10
    endloop
  endfacet
endsolid low