solid mid
  facet normal 15.0 4.018999999999999 -4.5
    outer loop
      vertex 3.0 0.0 0
      vertex 2.5981 1.5 0
      vertex 6.0 0.0 10
    endloop
  endfacet
  facet normal 10.981000000000002 10.981000000000002 -4.50012361
    outer loop
      vertex 2.5981 1.5 0
      vertex 1.5 2.5981 0
      vertex 5.1962 3.0 10
    endloop
  endfacet
  facet normal 4.018999999999999 15.0 -4.5
    outer loop
      vertex 1.5 2.5981 0
      vertex 0.0 3.0 0
      vertex 3.0 5.1962 10
    endloop
  endfacet
  facet normal -4.018999999999999 15.0 -4.5
    outer loop
      vertex 0.0 3.0 0
      vertex -1.5 2.5981 0
      vertex 0.0 6.0 10
    endloop
  endfacet
  facet normal -10.981000000000002 10.981000000000002 -4.50012361
    outer loop
      vertex -1.5 2.5981 0
      vertex -2.5981 1.5 0
      vertex -3.0 5.1962 10
    endloop
  endfacet
  facet normal -15.0 4.018999999999999 -4.5
    outer loop
      vertex -2.5981 1.5 0
      vertex -3.0 0.0 0
      vertex -5.1962 3.0 10
    endloop
  endfacet
  facet normal -15.0 -4.018999999999999 -4.5
    outer loop
      vertex -3.0 0.0 0
      vertex -2.5981 -1.5 0
      vertex -6.0 0.0 10
    endloop
  endfacet
  facet normal -10.981000000000002 -10.981000000000002 -4.50012361
    outer loop
      vertex -2.5981 -1.5 0
      vertex -1.5 -2.5981 0
      vertex -5.1962 -3.0 10
    endloop
  endfacet
  facet normal -4.018999999999999 -15.0 -4.5
    outer loop
      vertex -1.5 -2.5981 0
      vertex -0.0 -3.0 0
      vertex -3.0 -5.1962 10
    endloop
  endfacet
  facet normal 4.018999999999999 -15.0 -4.5
    outer loop
      vertex -0.0 -3.0 0
      vertex 1.5 -2.5981 0
      vertex -0.0 -6.0 10
    endloop
  endfacet
  facet normal 10.981000000000002 -10.981000000000002 -4.50012361
    outer loop
      vertex 1.5 -2.5981 0
      vertex 2.5981 -1.5 0
      vertex 3.0 -5.1962 10
    endloop
  endfacet
  facet normal 15.0 -4.018999999999999 -4.5
    outer loop
      vertex 2.5981 -1.5 0
      vertex 3.0 0.0 0
      vertex 5.1962 -3.0 10
    endloop
  endfacet
  facet normal 30.0 8.037999999999997 -9.0
    outer loop
      vertex 2.5981 1.5 0
      vertex 5.1962 3.0 10
      vertex 6.0 0.0 10
    endloop
  endfacet
  facet normal 21.962000000000003 21.962000000000003 -9.00024722
    outer loop
      vertex 1.5 2.5981 0
      vertex 3.0 5.1962 10
      vertex 5.1962 3.0 10
    endloop
  endfacet
  facet normal 8.037999999999997 30.0 -9.0
    outer loop
      vertex 0.0 3.0 0
      vertex 0.0 6.0 10
      vertex 3.0 5.1962 10
    endloop
  endfacet
  facet normal -8.037999999999997 30.0 -9.0
    outer loop
      vertex -1.5 2.5981 0
      vertex -3.0 5.1962 10
      vertex 0.0 6.0 10
    endloop
  endfacet
  facet normal -21.962000000000003 21.962000000000003 -9.00024722
    outer loop
      vertex -2.5981 1.5 0
      vertex -5.1962 3.0 10
      vertex -3.0 5.1962 10
    endloop
  endfacet
  facet normal -30.0 8.037999999999997 -9.0
    outer loop
      vertex -3.0 0.0 0
      vertex -6.0 0.0 10
      vertex -5.1962 3.0 10
    endloop
  endfacet
  facet normal -30.0 -8.037999999999997 -9.0
    outer loop
      vertex -2.5981 -1.5 0
      vertex -5.1962 -3.0 10
      vertex -6.0 0.0 10
    endloop
  endfacet
  facet normal -21.962000000000003 -21.962000000000003 -9.00024722
    outer loop
      vertex -1.5 -2.5981 0
      vertex -3.0 -5.1962 10
      vertex -5.1962 -3.0 10
    endloop
  endfacet
  facet normal -8.037999999999997 -30.0 -9.0
    outer loop
      vertex -0.0 -3.0 0
      vertex -0.0 -6.0 10
      vertex -3.0 -5.1962 10
    endloop
  endfacet
  facet normal 8.037999999999997 -30.0 -9.0
    outer loop
      vertex 1.5 -2.5981 0
      vertex 3.0 -5.1962 10
      vertex -0.0 -6.0 10
    endloop
  endfacet
  facet normal 21.962000000000003 -21.962000000000003 -9.00024722
    outer loop
      vertex 2.5981 -1.5 0
      vertex 5.1962 -3.0 10
      vertex 3.0 -5.1962 10
    endloop
  endfacet
  facet normal 30.0 -8.037999999999997 -9.0
    outer loop
      vertex 3.0 0.0 0
      vertex 6.0 0.0 10
      vertex 5.1962 -3.0 10
    endloop
  endfacet
  facet normal 0.0 0.0 -3.2943000000000002
    outer loop
      vertex 2.5981 -1.5 0
      vertex 1.5 2.5981 0
      vertex 2.5981 1.5 0
    endloop
  endfacet
  facet normal 0.0 0.0 -7.7943
    outer loop
      vertex 1.5 -2.5981 0
      vertex 0.0 3.0 0
      vertex 1.5 2.5981 0
    endloop
  endfacet
  facet normal 0.0 0.0 -9.0
    outer loop
      vertex 0.0 -3.0 0
      vertex -1.5 2.5981 0
      vertex 0.0 3.0 0
    endloop
  endfacet
  facet normal 0.0 0.0 -5.7059472200000005
    outer loop
      vertex -1.5 -2.5981 0
      vertex -2.5981 1.5 0
      vertex -1.5 2.5981 0
    endloop
  endfacet
  facet normal 0.0 0.0 -1.2056999999999998
    outer loop
      vertex -2.5981 -1.5 0
      vertex -3.0 0.0 0
      vertex -2.5981 1.5 0
    endloop
  endfacet
  facet normal 0.0 0.0 -3.2943000000000002
    outer loop
      vertex -2.5981 1.5 0
      vertex -1.5 -2.5981 0
      vertex -2.5981 -1.5 0
    endloop
  endfacet
  facet normal 0.0 0.0 -7.7943
    outer loop
      vertex -1.5 2.5981 0
      vertex -0.0 -3.0 0
      vertex -1.5 -2.5981 0
    endloop
  endfacet
  facet normal 0.0 0.0 -9.0
    outer loop
      vertex -0.0 3.0 0
      vertex 1.5 -2.5981 0
      vertex -0.0 -3.0 0
    endloop
  endfacet
  facet normal 0.0 0.0 -5.7059472200000005
    outer loop
      vertex 1.5 2.5981 0
      vertex 2.5981 -1.5 0
      vertex 1.5 -2.5981 0
    endloop
  endfacet
  facet normal 0.0 0.0 -1.2056999999999998
    outer loop
      vertex 2.5981 1.5 0
      vertex 3.0 0.0 0
      vertex 2.5981 -1.5 0
    endloop
  endfacet
  facet normal 0.0 0.0 13.177200000000001
    outer loop
      vertex 5.1962 3.0 10
      vertex 3.0 5.1962 10
      vertex 5.1962 -3.0 10
    endloop
  endfacet
  facet normal 0.0 0.0 31.1772
    outer loop
      vertex 3.0 5.1962 10
      vertex 0.0 6.0 10
      vertex 3.0 -5.1962 10
    endloop
  endfacet
  facet normal 0.0 0.0 36.0
    outer loop
      vertex 0.0 6.0 10
      vertex -3.0 5.1962 10
      vertex 0.0 -6.0 10
    endloop
  endfacet
  facet normal 0.0 0.0 22.823788880000002
    outer loop
      vertex -3.0 5.1962 10
      vertex -5.1962 3.0 10
      vertex -3.0 -5.1962 10
    endloop
  endfacet
  facet normal 0.0 0.0 4.822799999999999
    outer loop
      vertex -5.1962 3.0 10
      vertex -6.0 0.0 10
      vertex -5.1962 -3.0 10
    endloop
  endfacet
  facet normal -0.0 0.0 13.177200000000001
    outer loop
      vertex -5.1962 -3.0 10
      vertex -3.0 -5.1962 10
      vertex -5.1962 3.0 10
    endloop
  endfacet
  facet normal -0.0 0.0 31.1772
    outer loop
      vertex -3.0 -5.1962 10
      vertex -0.0 -6.0 10
      vertex -3.0 5.1962 10
    endloop
  endfacet
  facet normal 0.0 0.0 36.0
    outer loop
      vertex -0.0 -6.0 10
      vertex 3.0 -5.1962 10
      vertex -0.0 6.0 10
    endloop
  endfacet
  facet normal 0.0 0.0 22.823788880000002
    outer loop
      vertex 3.0 -5.1962 10
      vertex 5.1962 -3.0 10
      vertex 3.0 5.1962 10
    endloop
  endfacet
  facet normal 0.0 0.0 4.822799999999999
    outer loop
      vertex 5.1962 -3.0 10
      vertex 6.0 0.0 10
      vertex 5.1962 3.0 10
    endloop
  endfacet
endsolid mid